<svg xmlns="http://www.w3.org/2000/svg" xmlns:xlink="http://www.w3.org/1999/xlink" width="500" zoomAndPan="magnify" viewBox="0 0 375 374.999991" height="500" preserveAspectRatio="xMidYMid meet" version="1.0"><defs><clipPath id="a84c249754"><path d="M 0 0 L 375 0 L 375 374.183594 L 0 374.183594 Z M 0 0 " clip-rule="nonzero"/></clipPath><clipPath id="51f1eff6aa"><path d="M 0 0 L 375 0 L 375 374.183594 L 0 374.183594 Z M 0 0 " clip-rule="nonzero"/></clipPath><clipPath id="a6c04b7ebf"><rect x="0" width="375" y="0" height="375"/></clipPath><clipPath id="c760c0a576"><path d="M 184.921875 0.492188 L 288.617188 0.492188 L 288.617188 340.742188 L 184.921875 340.742188 Z M 184.921875 0.492188 " clip-rule="nonzero"/></clipPath><clipPath id="e5d8421d22"><path d="M 288.617188 35.054688 L 288.617188 340.523438 L 184.921875 305.957031 L 184.921875 0.492188 Z M 288.617188 35.054688 " clip-rule="nonzero"/></clipPath><clipPath id="24b38cd7c6"><path d="M 0.921875 0.492188 L 104.617188 0.492188 L 104.617188 340.601562 L 0.921875 340.601562 Z M 0.921875 0.492188 " clip-rule="nonzero"/></clipPath><clipPath id="a3752499aa"><path d="M 104.617188 35.054688 L 104.617188 340.523438 L 0.921875 305.957031 L 0.921875 0.492188 Z M 104.617188 35.054688 " clip-rule="nonzero"/></clipPath><clipPath id="2ffc145179"><rect x="0" width="105" y="0" height="341"/></clipPath><clipPath id="7daee535e8"><path d="M 98.230469 0.460938 L 184.933594 0.460938 L 184.933594 98 L 98.230469 98 Z M 98.230469 0.460938 " clip-rule="nonzero"/></clipPath><clipPath id="260555e274"><path d="M 98.230469 29.371094 L 98.230469 98 L 184.933594 69.101562 L 184.933594 0.472656 Z M 98.230469 29.371094 " clip-rule="nonzero"/></clipPath><clipPath id="7c44405fbb"><path d="M 0.230469 0.460938 L 86.933594 0.460938 L 86.933594 98 L 0.230469 98 Z M 0.230469 0.460938 " clip-rule="nonzero"/></clipPath><clipPath id="ca2b608bc3"><path d="M 0.230469 29.371094 L 0.230469 98 L 86.933594 69.101562 L 86.933594 0.472656 Z M 0.230469 29.371094 " clip-rule="nonzero"/></clipPath><clipPath id="baecdb08a7"><rect x="0" width="87" y="0" height="98"/></clipPath><clipPath id="913c5bf4be"><path d="M 59.101562 84.390625 L 133.496094 84.390625 L 133.496094 288.402344 L 59.101562 288.402344 Z M 59.101562 84.390625 " clip-rule="nonzero"/></clipPath><clipPath id="e7d103bd5f"><path d="M 133.496094 109.1875 L 133.496094 288.273438 L 59.101562 263.472656 L 59.101562 84.390625 Z M 133.496094 109.1875 " clip-rule="nonzero"/></clipPath><clipPath id="4a0e054b2f"><path d="M 0.101562 0.390625 L 74.496094 0.390625 L 74.496094 204.28125 L 0.101562 204.28125 Z M 0.101562 0.390625 " clip-rule="nonzero"/></clipPath><clipPath id="5b033a4a7b"><path d="M 74.496094 25.1875 L 74.496094 204.273438 L 0.101562 179.472656 L 0.101562 0.390625 Z M 74.496094 25.1875 " clip-rule="nonzero"/></clipPath><clipPath id="8681431eb8"><rect x="0" width="75" y="0" height="205"/></clipPath><clipPath id="bd5b5e7395"><path d="M 0.5 84.191406 L 59.113281 84.191406 L 59.113281 227.054688 L 0.5 227.054688 Z M 0.5 84.191406 " clip-rule="nonzero"/></clipPath><clipPath id="b3ba83eaab"><path d="M 0.5 103.894531 L 0.5 227.054688 L 59.113281 207.519531 L 59.113281 84.359375 Z M 0.5 103.894531 " clip-rule="nonzero"/></clipPath><clipPath id="188d37b3d3"><path d="M 0.5 0.28125 L 59.113281 0.28125 L 59.113281 143.054688 L 0.5 143.054688 Z M 0.5 0.28125 " clip-rule="nonzero"/></clipPath><clipPath id="77f34333bf"><path d="M 0.5 19.894531 L 0.5 143.054688 L 59.113281 123.519531 L 59.113281 0.359375 Z M 0.5 19.894531 " clip-rule="nonzero"/></clipPath><clipPath id="f04dcb1686"><rect x="0" width="60" y="0" height="144"/></clipPath><clipPath id="f00b7427e7"><rect x="0" width="289" y="0" height="341"/></clipPath></defs><rect x="-37.5" width="450" fill="#ffffff" y="-37.499999" height="449.999989" fill-opacity="1"/><rect x="-37.5" width="450" fill="#ffffff" y="-37.499999" height="449.999989" fill-opacity="1"/><g clip-path="url(#a84c249754)"><g transform="matrix(1, 0, 0, 1, 0, 0)"><g clip-path="url(#a6c04b7ebf)"><g clip-path="url(#51f1eff6aa)"><path fill="#ffffff" d="M 0 0 L 375.644531 0 L 375.644531 374.183594 L 0 374.183594 Z M 0 0 " fill-opacity="1" fill-rule="nonzero"/></g></g></g></g><g transform="matrix(1, 0, 0, 1, 37, 17)"><g clip-path="url(#f00b7427e7)"><g clip-path="url(#c760c0a576)"><g clip-path="url(#e5d8421d22)"><g transform="matrix(1, 0, 0, 1, 184, 0)"><g clip-path="url(#2ffc145179)"><g clip-path="url(#24b38cd7c6)"><g clip-path="url(#a3752499aa)"><path fill="#262c54" d="M 104.617188 0.492188 L 104.617188 340.335938 L 0.921875 340.335938 L 0.921875 0.492188 Z M 104.617188 0.492188 " fill-opacity="1" fill-rule="nonzero"/></g></g></g></g></g></g><g clip-path="url(#7daee535e8)"><g clip-path="url(#260555e274)"><g transform="matrix(1, 0, 0, 1, 98, 0)"><g clip-path="url(#baecdb08a7)"><g clip-path="url(#7c44405fbb)"><g clip-path="url(#ca2b608bc3)"><path fill="#0a012e" d="M 0.230469 98 L 0.230469 0.460938 L 86.933594 0.460938 L 86.933594 98 Z M 0.230469 98 " fill-opacity="1" fill-rule="nonzero"/></g></g></g></g></g></g><g clip-path="url(#913c5bf4be)"><g clip-path="url(#e7d103bd5f)"><g transform="matrix(1, 0, 0, 1, 59, 84)"><g clip-path="url(#8681431eb8)"><g clip-path="url(#4a0e054b2f)"><g clip-path="url(#5b033a4a7b)"><path fill="#262c54" d="M 74.496094 0.390625 L 74.496094 204.402344 L 0.101562 204.402344 L 0.101562 0.390625 Z M 74.496094 0.390625 " fill-opacity="1" fill-rule="nonzero"/></g></g></g></g></g></g><g clip-path="url(#bd5b5e7395)"><g clip-path="url(#b3ba83eaab)"><g transform="matrix(1, 0, 0, 1, 0, 84)"><g clip-path="url(#f04dcb1686)"><g clip-path="url(#188d37b3d3)"><g clip-path="url(#77f34333bf)"><path fill="#0a012e" d="M 0.5 143.054688 L 0.5 0.421875 L 59.113281 0.421875 L 59.113281 143.054688 Z M 0.5 143.054688 " fill-opacity="1" fill-rule="nonzero"/></g></g></g></g></g></g></g></g></svg>